{
  "accessors": [
    {
      "bufferView": 0,
      "componentType": 5125,
      "count": 13740,
      "type": "SCALAR"
    },
    {
      "bufferView": 1,
      "componentType": 5126,
      "count": 4938,
      "max": [2.37249279022217, 1.13020026683807, 6.91900157928467],
      "min": [-3.3097996711731, -0.842400193214417, -6.71086931228638],
      "type": "VEC3"
    },
    {
      "bufferView": 2,
      "componentType": 5126,
      "count": 4938,
      "type": "VEC3"
    },
    {
      "bufferView": 3,
      "componentType": 5126,
      "count": 4938,
      "type": "VEC2"
    }
  ],
  "asset": {
    "generator": "Substance Painter 6.2.2",
    "version": "2.0"
  },
  "bufferViews": [
    {
      "buffer": 0,
      "byteLength": 54960,
      "target": 34963
    },
    {
      "buffer": 0,
      "byteLength": 59256,
      "byteOffset": 54960,
      "target": 34962
    },
    {
      "buffer": 0,
      "byteLength": 59256,
      "byteOffset": 114216,
      "target": 34962
    },
    {
      "buffer": 0,
      "byteLength": 39504,
      "byteOffset": 173472,
      "target": 34962
    }
  ],
  "buffers": [
    {
      "byteLength": 212976,
      "uri": "guitar_Model.bin"
    }
  ],
  "images": [
    {
      "uri": "M_Guitar_baseColor.webp"
    },
    {
      "uri": "M_Guitar_occlusionRoughnessMetallic.webp"
    },
    {
      "uri": "M_Guitar_normal.webp"
    }
  ],
  "materials": [
    {
      "alphaMode": "OPAQUE",
      "name": "M_Guitar",
      "normalTexture": {
        "index": 2
      },
      "occlusionTexture": {
        "index": 1
      },
      "pbrMetallicRoughness": {
        "baseColorTexture": {
          "index": 0
        },
        "metallicRoughnessTexture": {
          "index": 1
        }
      }
    }
  ],
  "meshes": [
    {
      "name": "SM_Acoustic_Guitar",
      "primitives": [
        {
          "attributes": {
            "NORMAL": 2,
            "POSITION": 1,
            "TEXCOORD_0": 3
          },
          "indices": 0,
          "material": 0,
          "mode": 4
        }
      ]
    }
  ],
  "nodes": [
    {
      "children": [1],
      "name": "RootNode"
    },
    {
      "children": [2],
      "name": "SM_Acoustic_Guitar",
      "rotation": [-0.707106828689575, 0.0, 0.0, 0.707106709480286],
      "scale": [13.805456161499, 13.805456161499, 13.805456161499],
      "translation": [0.0, 6.68642520904541, 1.1859405040741]
    },
    {
      "mesh": 0,
      "name": "SM_Acoustic_Guitar"
    }
  ],
  "samplers": [
    {
      "magFilter": 9729,
      "minFilter": 9985,
      "wrapS": 10497,
      "wrapT": 10497
    }
  ],
  "scene": 0,
  "scenes": [
    {
      "name": "Scene",
      "nodes": [0]
    }
  ],
  "textures": [
    {
      "sampler": 0,
      "source": 0
    },
    {
      "sampler": 0,
      "source": 1
    },
    {
      "sampler": 0,
      "source": 2
    }
  ]
}
